<?xml version="1.0" encoding="iso-8859-1"?>
<!-- Generator: Adobe Illustrator 16.0.4, SVG Export Plug-In . SVG Version: 6.00 Build 0)  -->
<!DOCTYPE svg PUBLIC "-//W3C//DTD SVG 1.1//EN" "http://www.w3.org/Graphics/SVG/1.1/DTD/svg11.dtd">
<svg version="1.1" id="Capa_1" xmlns="http://www.w3.org/2000/svg" xmlns:xlink="http://www.w3.org/1999/xlink" x="0px" y="0px"
	 viewBox="0 0 73.169 73.169" style="enable-background:new 0 0 73.169 73.169;"
	 xml:space="preserve" fill="#b33">
<g id="Delete">
	<g>
		<path d="M36.585,0C16.411,0,0,16.412,0,36.584c0,20.173,16.411,36.585,36.585,36.585c20.172,0,36.584-16.412,36.584-36.585
			C73.169,16.412,56.757,0,36.585,0z M36.585,65.279c-15.822,0-28.691-12.869-28.691-28.695c0-15.817,12.869-28.687,28.691-28.687
			c15.82,0,28.689,12.869,28.689,28.687C65.274,52.41,52.405,65.279,36.585,65.279z M46.234,26.34c-1.538-1.541-4.039-1.541-5.581,0
			l-4.49,4.49l-4.068-4.068c-1.539-1.542-4.039-1.542-5.582,0c-1.541,1.541-1.541,4.039,0,5.58l4.069,4.069l-3.647,3.648
			c-1.542,1.542-1.542,4.039,0,5.581c0.771,0.774,1.782,1.158,2.79,1.158c1.012,0,2.02-0.384,2.79-1.158l3.648-3.648l4.069,4.069
			c0.771,0.774,1.782,1.158,2.79,1.158c1.012,0,2.02-0.384,2.791-1.158c1.541-1.542,1.541-4.039,0-5.581l-4.069-4.069l4.49-4.49
			C47.776,30.379,47.776,27.882,46.234,26.34z"/>
	</g>
</g>
<g>
</g>
<g>
</g>
<g>
</g>
<g>
</g>
<g>
</g>
<g>
</g>
<g>
</g>
<g>
</g>
<g>
</g>
<g>
</g>
<g>
</g>
<g>
</g>
<g>
</g>
<g>
</g>
<g>
</g>
</svg>
