<?xml version="1.0" encoding="iso-8859-1"?>
<!-- Generator: Adobe Illustrator 16.0.4, SVG Export Plug-In . SVG Version: 6.00 Build 0)  -->
<!DOCTYPE svg PUBLIC "-//W3C//DTD SVG 1.1//EN" "http://www.w3.org/Graphics/SVG/1.1/DTD/svg11.dtd">
<svg version="1.1" id="Capa_1" xmlns="http://www.w3.org/2000/svg" xmlns:xlink="http://www.w3.org/1999/xlink" x="0px" y="0px"
	 width="73.168px" height="73.169px" viewBox="0 0 73.168 73.169" style="enable-background:new 0 0 73.168 73.169;"
	 xml:space="preserve">
<g id="Pause">
	<g>
		<path d="M36.584,0C16.411,0,0,16.412,0,36.585s16.411,36.584,36.584,36.584s36.584-16.411,36.584-36.584S56.757,0,36.584,0z
			 M36.584,65.279c-15.821,0-28.691-12.869-28.691-28.694c0-15.817,12.87-28.688,28.691-28.688s28.691,12.87,28.691,28.688
			C65.275,52.41,52.405,65.279,36.584,65.279z M29.183,26.882c-2.177,0-3.944,1.768-3.944,3.949v11.508
			c0,2.182,1.768,3.948,3.944,3.948c2.182,0,3.949-1.767,3.949-3.948V30.831C33.132,28.649,31.364,26.882,29.183,26.882z
			 M43.985,26.882c-2.182,0-3.949,1.768-3.949,3.949v11.508c0,2.182,1.768,3.948,3.949,3.948c2.177,0,3.944-1.767,3.944-3.948
			V30.831C47.93,28.649,46.162,26.882,43.985,26.882z"/>
	</g>
</g>
<g>
</g>
<g>
</g>
<g>
</g>
<g>
</g>
<g>
</g>
<g>
</g>
<g>
</g>
<g>
</g>
<g>
</g>
<g>
</g>
<g>
</g>
<g>
</g>
<g>
</g>
<g>
</g>
<g>
</g>
</svg>
