<?xml version="1.0" encoding="iso-8859-1"?>
<!-- Generator: Adobe Illustrator 16.0.4, SVG Export Plug-In . SVG Version: 6.00 Build 0)  -->
<!DOCTYPE svg PUBLIC "-//W3C//DTD SVG 1.1//EN" "http://www.w3.org/Graphics/SVG/1.1/DTD/svg11.dtd">
<svg version="1.1" id="Capa_1" xmlns="http://www.w3.org/2000/svg" xmlns:xlink="http://www.w3.org/1999/xlink" x="0px" y="0px"
	 width="73.17px" height="73.169px" viewBox="0 0 73.17 73.169" style="enable-background:new 0 0 73.17 73.169;"
	 xml:space="preserve">
<g id="Stop">
	<g>
		<path d="M36.585,0C16.412,0,0,16.412,0,36.585s16.412,36.584,36.585,36.584S73.17,56.758,73.17,36.585S56.758,0,36.585,0z
			 M36.585,65.279c-15.817,0-28.69-12.869-28.69-28.694c0-15.817,12.873-28.688,28.69-28.688c15.821,0,28.69,12.87,28.69,28.688
			C65.275,52.41,52.406,65.279,36.585,65.279z M46.773,25.017H27.446c-1.087,0-1.971,0.888-1.971,1.971v19.323
			c0,1.09,0.884,1.978,1.971,1.978h19.327c1.086,0,1.971-0.888,1.971-1.978V26.987C48.744,25.904,47.859,25.017,46.773,25.017z"/>
	</g>
</g>
<g>
</g>
<g>
</g>
<g>
</g>
<g>
</g>
<g>
</g>
<g>
</g>
<g>
</g>
<g>
</g>
<g>
</g>
<g>
</g>
<g>
</g>
<g>
</g>
<g>
</g>
<g>
</g>
<g>
</g>
</svg>
